<mxfile host="app.diagrams.net" modified="2024-04-25T03:14:58.056Z" agent="Mozilla/5.0 (Windows NT 10.0; Win64; x64) AppleWebKit/537.36 (KHTML, like Gecko) Chrome/122.0.0.0 Safari/537.36 Edg/122.0.0.0" etag="K_etqWRnu6wwPBKrwUMz" version="24.3.0" type="github">
  <diagram name="第 1 页" id="Z2feuIrGMQaKYotuqINe">
    <mxGraphModel dx="1402" dy="935" grid="0" gridSize="10" guides="1" tooltips="1" connect="1" arrows="1" fold="1" page="0" pageScale="1" pageWidth="827" pageHeight="1169" math="0" shadow="0">
      <root>
        <mxCell id="0" />
        <mxCell id="1" parent="0" />
        <mxCell id="YAOU13rI1jtthDPteihQ-1" value="顾客" style="swimlane;whiteSpace=wrap;html=1;" parent="1" vertex="1">
          <mxGeometry x="-303" y="-278" width="100" height="896" as="geometry" />
        </mxCell>
        <mxCell id="YAOU13rI1jtthDPteihQ-42" value="" style="edgeStyle=none;curved=1;rounded=0;orthogonalLoop=1;jettySize=auto;html=1;fontSize=12;startSize=8;endSize=8;" parent="YAOU13rI1jtthDPteihQ-1" source="YAOU13rI1jtthDPteihQ-11" target="YAOU13rI1jtthDPteihQ-41" edge="1">
          <mxGeometry relative="1" as="geometry" />
        </mxCell>
        <mxCell id="YAOU13rI1jtthDPteihQ-11" value="注册登录" style="rounded=0;whiteSpace=wrap;html=1;fillColor=#d5e8d4;strokeColor=#82b366;" parent="YAOU13rI1jtthDPteihQ-1" vertex="1">
          <mxGeometry x="9.5" y="39" width="82" height="37" as="geometry" />
        </mxCell>
        <mxCell id="YAOU13rI1jtthDPteihQ-41" value="查看商店、商品信息" style="rounded=0;whiteSpace=wrap;html=1;fillColor=#fff2cc;strokeColor=#d6b656;" parent="YAOU13rI1jtthDPteihQ-1" vertex="1">
          <mxGeometry x="17" y="211" width="67" height="39" as="geometry" />
        </mxCell>
        <mxCell id="YAOU13rI1jtthDPteihQ-68" value="" style="edgeStyle=none;curved=1;rounded=0;orthogonalLoop=1;jettySize=auto;html=1;fontSize=12;startSize=8;endSize=8;" parent="YAOU13rI1jtthDPteihQ-1" source="YAOU13rI1jtthDPteihQ-46" target="YAOU13rI1jtthDPteihQ-67" edge="1">
          <mxGeometry relative="1" as="geometry" />
        </mxCell>
        <mxCell id="YAOU13rI1jtthDPteihQ-46" value="创建订单" style="rounded=0;whiteSpace=wrap;html=1;fillColor=#dae8fc;strokeColor=#6c8ebf;" parent="YAOU13rI1jtthDPteihQ-1" vertex="1">
          <mxGeometry x="9.5" y="296" width="83.5" height="41" as="geometry" />
        </mxCell>
        <mxCell id="d0WVinOz0NllohWS_fRl-2" style="edgeStyle=orthogonalEdgeStyle;rounded=0;orthogonalLoop=1;jettySize=auto;html=1;exitX=0.5;exitY=1;exitDx=0;exitDy=0;" edge="1" parent="YAOU13rI1jtthDPteihQ-1" source="YAOU13rI1jtthDPteihQ-67">
          <mxGeometry relative="1" as="geometry">
            <mxPoint x="51" y="586.4000549316406" as="targetPoint" />
          </mxGeometry>
        </mxCell>
        <mxCell id="YAOU13rI1jtthDPteihQ-67" value="领取、使用优惠券" style="whiteSpace=wrap;html=1;rounded=0;fillColor=#fff2cc;strokeColor=#d6b656;" parent="YAOU13rI1jtthDPteihQ-1" vertex="1">
          <mxGeometry x="12" y="516" width="77" height="42" as="geometry" />
        </mxCell>
        <mxCell id="d0WVinOz0NllohWS_fRl-11" value="支付订单" style="whiteSpace=wrap;html=1;rounded=0;fillColor=#e1d5e7;strokeColor=#9673a6;" vertex="1" parent="YAOU13rI1jtthDPteihQ-1">
          <mxGeometry x="12.75" y="588" width="77" height="42" as="geometry" />
        </mxCell>
        <mxCell id="d0WVinOz0NllohWS_fRl-17" style="edgeStyle=orthogonalEdgeStyle;rounded=0;orthogonalLoop=1;jettySize=auto;html=1;exitX=0.5;exitY=1;exitDx=0;exitDy=0;" edge="1" parent="YAOU13rI1jtthDPteihQ-1" source="d0WVinOz0NllohWS_fRl-16">
          <mxGeometry relative="1" as="geometry">
            <mxPoint x="48" y="820.7999877929688" as="targetPoint" />
          </mxGeometry>
        </mxCell>
        <mxCell id="d0WVinOz0NllohWS_fRl-16" value="确认收货" style="whiteSpace=wrap;html=1;rounded=0;fillColor=#e1d5e7;strokeColor=#9673a6;" vertex="1" parent="YAOU13rI1jtthDPteihQ-1">
          <mxGeometry x="9.5" y="748" width="77" height="42" as="geometry" />
        </mxCell>
        <mxCell id="d0WVinOz0NllohWS_fRl-33" style="edgeStyle=orthogonalEdgeStyle;rounded=0;orthogonalLoop=1;jettySize=auto;html=1;exitX=1;exitY=0.5;exitDx=0;exitDy=0;strokeColor=#FF3333;" edge="1" parent="YAOU13rI1jtthDPteihQ-1" source="d0WVinOz0NllohWS_fRl-29">
          <mxGeometry relative="1" as="geometry">
            <mxPoint x="114.79998779296875" y="841" as="targetPoint" />
          </mxGeometry>
        </mxCell>
        <mxCell id="d0WVinOz0NllohWS_fRl-29" value="评价商品" style="whiteSpace=wrap;html=1;rounded=0;fillColor=#dae8fc;strokeColor=#6c8ebf;" vertex="1" parent="YAOU13rI1jtthDPteihQ-1">
          <mxGeometry x="9.5" y="820" width="77" height="42" as="geometry" />
        </mxCell>
        <mxCell id="YAOU13rI1jtthDPteihQ-5" value="经理" style="swimlane;whiteSpace=wrap;html=1;" parent="1" vertex="1">
          <mxGeometry x="-100" y="-278" width="102" height="897" as="geometry" />
        </mxCell>
        <mxCell id="d0WVinOz0NllohWS_fRl-35" style="edgeStyle=orthogonalEdgeStyle;rounded=0;orthogonalLoop=1;jettySize=auto;html=1;exitX=0.5;exitY=1;exitDx=0;exitDy=0;entryX=0.5;entryY=0;entryDx=0;entryDy=0;" edge="1" parent="YAOU13rI1jtthDPteihQ-5" source="YAOU13rI1jtthDPteihQ-13" target="YAOU13rI1jtthDPteihQ-52">
          <mxGeometry relative="1" as="geometry" />
        </mxCell>
        <mxCell id="YAOU13rI1jtthDPteihQ-13" value="注册登录" style="rounded=0;whiteSpace=wrap;html=1;fillColor=#d5e8d4;strokeColor=#82b366;" parent="YAOU13rI1jtthDPteihQ-5" vertex="1">
          <mxGeometry x="9.5" y="39" width="82" height="34" as="geometry" />
        </mxCell>
        <mxCell id="YAOU13rI1jtthDPteihQ-61" style="edgeStyle=none;curved=1;rounded=0;orthogonalLoop=1;jettySize=auto;html=1;exitX=0.25;exitY=1;exitDx=0;exitDy=0;fontSize=12;startSize=8;endSize=8;entryX=0.25;entryY=0;entryDx=0;entryDy=0;" parent="YAOU13rI1jtthDPteihQ-5" source="YAOU13rI1jtthDPteihQ-52" target="YAOU13rI1jtthDPteihQ-62" edge="1">
          <mxGeometry relative="1" as="geometry">
            <mxPoint x="27" y="432.9999694824219" as="targetPoint" />
          </mxGeometry>
        </mxCell>
        <mxCell id="YAOU13rI1jtthDPteihQ-52" value="查看订单" style="rounded=0;whiteSpace=wrap;html=1;fillColor=#fff2cc;strokeColor=#d6b656;" parent="YAOU13rI1jtthDPteihQ-5" vertex="1">
          <mxGeometry x="9.5" y="281" width="70" height="46" as="geometry" />
        </mxCell>
        <mxCell id="YAOU13rI1jtthDPteihQ-71" style="edgeStyle=orthogonalEdgeStyle;rounded=0;orthogonalLoop=1;jettySize=auto;html=1;exitX=0.5;exitY=1;exitDx=0;exitDy=0;fontSize=12;startSize=8;endSize=8;strokeColor=#FF3333;" parent="YAOU13rI1jtthDPteihQ-5" source="YAOU13rI1jtthDPteihQ-62" edge="1">
          <mxGeometry relative="1" as="geometry">
            <mxPoint x="-155" y="484" as="targetPoint" />
            <Array as="points">
              <mxPoint x="47" y="462" />
              <mxPoint x="47" y="484" />
            </Array>
          </mxGeometry>
        </mxCell>
        <mxCell id="YAOU13rI1jtthDPteihQ-62" value="创建全局优惠券" style="rounded=0;whiteSpace=wrap;html=1;fillColor=#dae8fc;strokeColor=#6c8ebf;" parent="YAOU13rI1jtthDPteihQ-5" vertex="1">
          <mxGeometry x="9.5" y="416" width="70" height="46" as="geometry" />
        </mxCell>
        <mxCell id="YAOU13rI1jtthDPteihQ-6" value="管理员" style="swimlane;whiteSpace=wrap;html=1;" parent="1" vertex="1">
          <mxGeometry x="2" y="-278" width="118" height="896" as="geometry" />
        </mxCell>
        <mxCell id="YAOU13rI1jtthDPteihQ-17" value="" style="edgeStyle=none;curved=1;rounded=0;orthogonalLoop=1;jettySize=auto;html=1;fontSize=12;startSize=8;endSize=8;" parent="YAOU13rI1jtthDPteihQ-6" source="YAOU13rI1jtthDPteihQ-14" target="YAOU13rI1jtthDPteihQ-16" edge="1">
          <mxGeometry relative="1" as="geometry" />
        </mxCell>
        <mxCell id="YAOU13rI1jtthDPteihQ-14" value="注册登录" style="rounded=0;whiteSpace=wrap;html=1;fillColor=#d5e8d4;strokeColor=#82b366;" parent="YAOU13rI1jtthDPteihQ-6" vertex="1">
          <mxGeometry x="9.5" y="39" width="82" height="34" as="geometry" />
        </mxCell>
        <mxCell id="YAOU13rI1jtthDPteihQ-16" value="创建商店" style="whiteSpace=wrap;html=1;fillColor=#dae8fc;strokeColor=#6c8ebf;rounded=0;" parent="YAOU13rI1jtthDPteihQ-6" vertex="1">
          <mxGeometry x="11" y="119" width="82" height="41" as="geometry" />
        </mxCell>
        <mxCell id="YAOU13rI1jtthDPteihQ-18" value="" style="edgeStyle=none;curved=1;rounded=0;orthogonalLoop=1;jettySize=auto;html=1;fontSize=12;startSize=8;endSize=8;strokeColor=#FF3333;" parent="1" source="YAOU13rI1jtthDPteihQ-16" target="YAOU13rI1jtthDPteihQ-12" edge="1">
          <mxGeometry relative="1" as="geometry" />
        </mxCell>
        <mxCell id="YAOU13rI1jtthDPteihQ-33" style="edgeStyle=none;curved=1;rounded=0;orthogonalLoop=1;jettySize=auto;html=1;exitX=0.75;exitY=0;exitDx=0;exitDy=0;fontSize=12;startSize=8;endSize=8;" parent="1" source="YAOU13rI1jtthDPteihQ-1" target="YAOU13rI1jtthDPteihQ-1" edge="1">
          <mxGeometry relative="1" as="geometry" />
        </mxCell>
        <mxCell id="YAOU13rI1jtthDPteihQ-4" value="商家" style="swimlane;whiteSpace=wrap;html=1;" parent="1" vertex="1">
          <mxGeometry x="-202" y="-278" width="102" height="897" as="geometry" />
        </mxCell>
        <mxCell id="YAOU13rI1jtthDPteihQ-12" value="注册登录" style="rounded=0;whiteSpace=wrap;html=1;fillColor=#d5e8d4;strokeColor=#82b366;" parent="YAOU13rI1jtthDPteihQ-4" vertex="1">
          <mxGeometry x="7" y="122.5" width="82" height="34" as="geometry" />
        </mxCell>
        <mxCell id="YAOU13rI1jtthDPteihQ-28" value="创建商品&lt;div&gt;&lt;span style=&quot;background-color: initial;&quot;&gt;修改库存&lt;/span&gt;&lt;br&gt;&lt;/div&gt;" style="rounded=0;whiteSpace=wrap;html=1;fillColor=#dae8fc;strokeColor=#6c8ebf;" parent="YAOU13rI1jtthDPteihQ-4" vertex="1">
          <mxGeometry x="5" y="211" width="86" height="36" as="geometry" />
        </mxCell>
        <mxCell id="YAOU13rI1jtthDPteihQ-27" value="" style="endArrow=classic;html=1;rounded=0;fontSize=12;startSize=8;endSize=8;curved=1;exitX=0.5;exitY=1;exitDx=0;exitDy=0;" parent="YAOU13rI1jtthDPteihQ-4" source="YAOU13rI1jtthDPteihQ-12" target="YAOU13rI1jtthDPteihQ-28" edge="1">
          <mxGeometry width="50" height="50" relative="1" as="geometry">
            <mxPoint x="74" y="134" as="sourcePoint" />
            <mxPoint x="48" y="190" as="targetPoint" />
          </mxGeometry>
        </mxCell>
        <mxCell id="YAOU13rI1jtthDPteihQ-60" value="" style="edgeStyle=none;curved=1;rounded=0;orthogonalLoop=1;jettySize=auto;html=1;fontSize=12;startSize=8;endSize=8;" parent="YAOU13rI1jtthDPteihQ-4" source="YAOU13rI1jtthDPteihQ-50" target="YAOU13rI1jtthDPteihQ-59" edge="1">
          <mxGeometry relative="1" as="geometry" />
        </mxCell>
        <mxCell id="YAOU13rI1jtthDPteihQ-65" style="edgeStyle=orthogonalEdgeStyle;rounded=0;orthogonalLoop=1;jettySize=auto;html=1;exitX=0.25;exitY=1;exitDx=0;exitDy=0;fontSize=12;startSize=8;endSize=8;entryX=0.146;entryY=0.026;entryDx=0;entryDy=0;entryPerimeter=0;" parent="YAOU13rI1jtthDPteihQ-4" source="YAOU13rI1jtthDPteihQ-50" target="YAOU13rI1jtthDPteihQ-66" edge="1">
          <mxGeometry relative="1" as="geometry">
            <mxPoint x="15" y="524" as="targetPoint" />
            <Array as="points">
              <mxPoint x="42" y="388" />
              <mxPoint x="15" y="388" />
            </Array>
          </mxGeometry>
        </mxCell>
        <mxCell id="YAOU13rI1jtthDPteihQ-50" value="查看订单" style="rounded=0;whiteSpace=wrap;html=1;fillColor=#fff2cc;strokeColor=#d6b656;" parent="YAOU13rI1jtthDPteihQ-4" vertex="1">
          <mxGeometry x="24" y="295" width="70" height="46" as="geometry" />
        </mxCell>
        <mxCell id="YAOU13rI1jtthDPteihQ-73" style="edgeStyle=none;curved=1;rounded=0;orthogonalLoop=1;jettySize=auto;html=1;exitX=0.5;exitY=1;exitDx=0;exitDy=0;fontSize=12;startSize=8;endSize=8;" parent="YAOU13rI1jtthDPteihQ-4" source="YAOU13rI1jtthDPteihQ-59" edge="1">
          <mxGeometry relative="1" as="geometry">
            <mxPoint x="59" y="487.4000244140625" as="targetPoint" />
          </mxGeometry>
        </mxCell>
        <mxCell id="YAOU13rI1jtthDPteihQ-59" value="创建本店优惠券" style="rounded=0;whiteSpace=wrap;html=1;fillColor=#dae8fc;strokeColor=#6c8ebf;" parent="YAOU13rI1jtthDPteihQ-4" vertex="1">
          <mxGeometry x="24" y="421" width="70" height="45" as="geometry" />
        </mxCell>
        <mxCell id="d0WVinOz0NllohWS_fRl-15" style="edgeStyle=orthogonalEdgeStyle;rounded=0;orthogonalLoop=1;jettySize=auto;html=1;exitX=0.5;exitY=1;exitDx=0;exitDy=0;strokeColor=#FF3333;" edge="1" parent="YAOU13rI1jtthDPteihQ-4" source="YAOU13rI1jtthDPteihQ-66">
          <mxGeometry relative="1" as="geometry">
            <mxPoint x="-62.20001220703125" y="748.800048828125" as="targetPoint" />
          </mxGeometry>
        </mxCell>
        <mxCell id="YAOU13rI1jtthDPteihQ-66" value="发货" style="rounded=0;whiteSpace=wrap;html=1;fillColor=#e1d5e7;strokeColor=#9673a6;" parent="YAOU13rI1jtthDPteihQ-4" vertex="1">
          <mxGeometry x="5" y="660" width="70" height="46" as="geometry" />
        </mxCell>
        <mxCell id="d0WVinOz0NllohWS_fRl-34" value="查看评价" style="whiteSpace=wrap;html=1;rounded=0;fillColor=#fff2cc;strokeColor=#d6b656;" vertex="1" parent="YAOU13rI1jtthDPteihQ-4">
          <mxGeometry x="14" y="820" width="77" height="42" as="geometry" />
        </mxCell>
        <mxCell id="YAOU13rI1jtthDPteihQ-40" value="" style="endArrow=classic;html=1;rounded=0;fontSize=12;startSize=8;endSize=8;curved=1;exitX=0;exitY=0.5;exitDx=0;exitDy=0;strokeColor=#FF3333;" parent="1" source="YAOU13rI1jtthDPteihQ-28" target="YAOU13rI1jtthDPteihQ-41" edge="1">
          <mxGeometry width="50" height="50" relative="1" as="geometry">
            <mxPoint x="65" y="-51" as="sourcePoint" />
            <mxPoint x="-232" y="-49" as="targetPoint" />
          </mxGeometry>
        </mxCell>
        <mxCell id="YAOU13rI1jtthDPteihQ-45" value="" style="endArrow=classic;html=1;rounded=0;fontSize=12;startSize=8;endSize=8;curved=1;exitX=0.5;exitY=1;exitDx=0;exitDy=0;" parent="1" source="YAOU13rI1jtthDPteihQ-41" edge="1">
          <mxGeometry width="50" height="50" relative="1" as="geometry">
            <mxPoint x="-11" y="39" as="sourcePoint" />
            <mxPoint x="-252" y="17" as="targetPoint" />
          </mxGeometry>
        </mxCell>
        <mxCell id="YAOU13rI1jtthDPteihQ-49" value="" style="endArrow=classic;html=1;rounded=0;fontSize=12;startSize=8;endSize=8;curved=1;exitX=1;exitY=0.5;exitDx=0;exitDy=0;strokeColor=#FF3333;" parent="1" source="YAOU13rI1jtthDPteihQ-46" edge="1">
          <mxGeometry width="50" height="50" relative="1" as="geometry">
            <mxPoint x="-11" y="39" as="sourcePoint" />
            <mxPoint x="-179" y="39" as="targetPoint" />
          </mxGeometry>
        </mxCell>
        <mxCell id="YAOU13rI1jtthDPteihQ-51" value="" style="endArrow=classic;html=1;rounded=0;fontSize=12;startSize=8;endSize=8;exitX=0.5;exitY=1;exitDx=0;exitDy=0;strokeColor=#FF3333;edgeStyle=orthogonalEdgeStyle;" parent="1" source="YAOU13rI1jtthDPteihQ-46" edge="1">
          <mxGeometry width="50" height="50" relative="1" as="geometry">
            <mxPoint x="-11" y="39" as="sourcePoint" />
            <mxPoint x="-55" y="49" as="targetPoint" />
            <Array as="points">
              <mxPoint x="-252" y="95" />
              <mxPoint x="-55" y="95" />
            </Array>
          </mxGeometry>
        </mxCell>
        <mxCell id="d0WVinOz0NllohWS_fRl-13" style="edgeStyle=orthogonalEdgeStyle;rounded=0;orthogonalLoop=1;jettySize=auto;html=1;exitX=0.5;exitY=1;exitDx=0;exitDy=0;entryX=0;entryY=0.5;entryDx=0;entryDy=0;strokeColor=#FF3333;" edge="1" parent="1" source="d0WVinOz0NllohWS_fRl-11" target="YAOU13rI1jtthDPteihQ-66">
          <mxGeometry relative="1" as="geometry" />
        </mxCell>
        <mxCell id="d0WVinOz0NllohWS_fRl-39" value="BlueWhale产品结构图" style="rounded=1;whiteSpace=wrap;html=1;fillColor=#dae8fc;strokeColor=#6c8ebf;" vertex="1" parent="1">
          <mxGeometry x="21" y="726" width="133" height="52" as="geometry" />
        </mxCell>
        <mxCell id="d0WVinOz0NllohWS_fRl-40" value="优惠券" style="whiteSpace=wrap;html=1;align=center;verticalAlign=middle;treeFolding=1;treeMoving=1;newEdgeStyle={&quot;edgeStyle&quot;:&quot;elbowEdgeStyle&quot;,&quot;startArrow&quot;:&quot;none&quot;,&quot;endArrow&quot;:&quot;none&quot;};fillColor=#d5e8d4;strokeColor=#82b366;" vertex="1" parent="1">
          <mxGeometry x="268" y="848" width="100" height="60" as="geometry" />
        </mxCell>
        <mxCell id="d0WVinOz0NllohWS_fRl-41" value="" style="edgeStyle=elbowEdgeStyle;elbow=vertical;sourcePerimeterSpacing=0;targetPerimeterSpacing=0;startArrow=none;endArrow=none;rounded=0;curved=0;" edge="1" target="d0WVinOz0NllohWS_fRl-40" parent="1">
          <mxGeometry relative="1" as="geometry">
            <mxPoint x="88" y="778" as="sourcePoint" />
          </mxGeometry>
        </mxCell>
        <mxCell id="d0WVinOz0NllohWS_fRl-42" value="订单" style="whiteSpace=wrap;html=1;align=center;verticalAlign=middle;treeFolding=1;treeMoving=1;newEdgeStyle={&quot;edgeStyle&quot;:&quot;elbowEdgeStyle&quot;,&quot;startArrow&quot;:&quot;none&quot;,&quot;endArrow&quot;:&quot;none&quot;};fillColor=#d5e8d4;strokeColor=#82b366;" vertex="1" parent="1">
          <mxGeometry x="154" y="848" width="100" height="60" as="geometry" />
        </mxCell>
        <mxCell id="d0WVinOz0NllohWS_fRl-43" value="" style="edgeStyle=elbowEdgeStyle;elbow=vertical;sourcePerimeterSpacing=0;targetPerimeterSpacing=0;startArrow=none;endArrow=none;rounded=0;curved=0;" edge="1" target="d0WVinOz0NllohWS_fRl-42" parent="1">
          <mxGeometry relative="1" as="geometry">
            <mxPoint x="204" y="813" as="sourcePoint" />
          </mxGeometry>
        </mxCell>
        <mxCell id="d0WVinOz0NllohWS_fRl-44" value="用户" style="whiteSpace=wrap;html=1;align=center;verticalAlign=middle;treeFolding=1;treeMoving=1;newEdgeStyle={&quot;edgeStyle&quot;:&quot;elbowEdgeStyle&quot;,&quot;startArrow&quot;:&quot;none&quot;,&quot;endArrow&quot;:&quot;none&quot;};fillColor=#d5e8d4;strokeColor=#82b366;" vertex="1" parent="1">
          <mxGeometry x="-194" y="845" width="100" height="60" as="geometry" />
        </mxCell>
        <mxCell id="d0WVinOz0NllohWS_fRl-45" value="" style="edgeStyle=elbowEdgeStyle;elbow=vertical;sourcePerimeterSpacing=0;targetPerimeterSpacing=0;startArrow=none;endArrow=none;rounded=0;curved=0;" edge="1" parent="1">
          <mxGeometry relative="1" as="geometry">
            <mxPoint x="88" y="790" as="sourcePoint" />
            <mxPoint x="-143" y="846" as="targetPoint" />
            <Array as="points">
              <mxPoint x="-26" y="812" />
            </Array>
          </mxGeometry>
        </mxCell>
        <mxCell id="d0WVinOz0NllohWS_fRl-46" value="商店" style="whiteSpace=wrap;html=1;align=center;verticalAlign=middle;treeFolding=1;treeMoving=1;newEdgeStyle={&quot;edgeStyle&quot;:&quot;elbowEdgeStyle&quot;,&quot;startArrow&quot;:&quot;none&quot;,&quot;endArrow&quot;:&quot;none&quot;};fillColor=#d5e8d4;strokeColor=#82b366;" vertex="1" parent="1">
          <mxGeometry x="-70" y="846.5" width="99" height="61.5" as="geometry" />
        </mxCell>
        <mxCell id="d0WVinOz0NllohWS_fRl-47" value="" style="edgeStyle=elbowEdgeStyle;elbow=vertical;sourcePerimeterSpacing=0;targetPerimeterSpacing=0;startArrow=none;endArrow=none;rounded=0;curved=0;" edge="1" target="d0WVinOz0NllohWS_fRl-46" parent="1">
          <mxGeometry relative="1" as="geometry">
            <mxPoint x="-20" y="811" as="sourcePoint" />
          </mxGeometry>
        </mxCell>
        <mxCell id="d0WVinOz0NllohWS_fRl-48" value="商品" style="whiteSpace=wrap;html=1;align=center;verticalAlign=middle;treeFolding=1;treeMoving=1;newEdgeStyle={&quot;edgeStyle&quot;:&quot;elbowEdgeStyle&quot;,&quot;startArrow&quot;:&quot;none&quot;,&quot;endArrow&quot;:&quot;none&quot;};fillColor=#d5e8d4;strokeColor=#82b366;" vertex="1" parent="1">
          <mxGeometry x="37.5" y="848" width="100" height="60" as="geometry" />
        </mxCell>
        <mxCell id="d0WVinOz0NllohWS_fRl-49" value="" style="edgeStyle=elbowEdgeStyle;elbow=vertical;sourcePerimeterSpacing=0;targetPerimeterSpacing=0;startArrow=none;endArrow=none;rounded=0;curved=0;" edge="1" parent="1">
          <mxGeometry relative="1" as="geometry">
            <mxPoint x="87" y="809.5" as="sourcePoint" />
            <mxPoint x="87" y="846.5" as="targetPoint" />
            <Array as="points">
              <mxPoint x="87" y="838.5" />
            </Array>
          </mxGeometry>
        </mxCell>
        <mxCell id="d0WVinOz0NllohWS_fRl-51" value="注册&amp;amp;登录" style="whiteSpace=wrap;html=1;align=center;verticalAlign=middle;treeFolding=1;treeMoving=1;newEdgeStyle={&quot;edgeStyle&quot;:&quot;elbowEdgeStyle&quot;,&quot;startArrow&quot;:&quot;none&quot;,&quot;endArrow&quot;:&quot;none&quot;};fillColor=#fff2cc;strokeColor=#d6b656;" vertex="1" parent="1">
          <mxGeometry x="-325" y="943" width="100" height="60" as="geometry" />
        </mxCell>
        <mxCell id="d0WVinOz0NllohWS_fRl-52" value="" style="edgeStyle=elbowEdgeStyle;elbow=vertical;sourcePerimeterSpacing=0;targetPerimeterSpacing=0;startArrow=none;endArrow=none;rounded=0;curved=0;" edge="1" target="d0WVinOz0NllohWS_fRl-51" parent="1">
          <mxGeometry relative="1" as="geometry">
            <mxPoint x="-144" y="905" as="sourcePoint" />
          </mxGeometry>
        </mxCell>
        <mxCell id="d0WVinOz0NllohWS_fRl-53" value="个人信息页面" style="whiteSpace=wrap;html=1;align=center;verticalAlign=middle;treeFolding=1;treeMoving=1;newEdgeStyle={&quot;edgeStyle&quot;:&quot;elbowEdgeStyle&quot;,&quot;startArrow&quot;:&quot;none&quot;,&quot;endArrow&quot;:&quot;none&quot;};fillColor=#f8cecc;strokeColor=#b85450;" vertex="1" parent="1">
          <mxGeometry x="-194" y="943" width="100" height="60" as="geometry" />
        </mxCell>
        <mxCell id="d0WVinOz0NllohWS_fRl-54" value="" style="edgeStyle=elbowEdgeStyle;elbow=vertical;sourcePerimeterSpacing=0;targetPerimeterSpacing=0;startArrow=none;endArrow=none;rounded=0;curved=0;" edge="1" target="d0WVinOz0NllohWS_fRl-53" parent="1">
          <mxGeometry relative="1" as="geometry">
            <mxPoint x="-144" y="923" as="sourcePoint" />
          </mxGeometry>
        </mxCell>
        <mxCell id="d0WVinOz0NllohWS_fRl-55" value="创建商店" style="whiteSpace=wrap;html=1;align=center;verticalAlign=middle;treeFolding=1;treeMoving=1;newEdgeStyle={&quot;edgeStyle&quot;:&quot;elbowEdgeStyle&quot;,&quot;startArrow&quot;:&quot;none&quot;,&quot;endArrow&quot;:&quot;none&quot;};fillColor=#fff2cc;strokeColor=#d6b656;" vertex="1" parent="1">
          <mxGeometry x="-245" y="1047" width="100" height="60" as="geometry" />
        </mxCell>
        <mxCell id="d0WVinOz0NllohWS_fRl-56" value="" style="edgeStyle=elbowEdgeStyle;elbow=vertical;sourcePerimeterSpacing=0;targetPerimeterSpacing=0;startArrow=none;endArrow=none;rounded=0;curved=0;" edge="1" target="d0WVinOz0NllohWS_fRl-55" parent="1">
          <mxGeometry relative="1" as="geometry">
            <mxPoint x="-20" y="908" as="sourcePoint" />
            <Array as="points">
              <mxPoint x="-80" y="1020" />
            </Array>
          </mxGeometry>
        </mxCell>
        <mxCell id="d0WVinOz0NllohWS_fRl-57" value="个人商店" style="whiteSpace=wrap;html=1;align=center;verticalAlign=middle;treeFolding=1;treeMoving=1;newEdgeStyle={&quot;edgeStyle&quot;:&quot;elbowEdgeStyle&quot;,&quot;startArrow&quot;:&quot;none&quot;,&quot;endArrow&quot;:&quot;none&quot;};fillColor=#f8cecc;strokeColor=#b85450;" vertex="1" parent="1">
          <mxGeometry x="-133" y="1047" width="100" height="60" as="geometry" />
        </mxCell>
        <mxCell id="d0WVinOz0NllohWS_fRl-58" value="" style="edgeStyle=elbowEdgeStyle;elbow=vertical;sourcePerimeterSpacing=0;targetPerimeterSpacing=0;startArrow=none;endArrow=none;rounded=0;curved=0;" edge="1" target="d0WVinOz0NllohWS_fRl-57" parent="1">
          <mxGeometry relative="1" as="geometry">
            <mxPoint x="-83" y="1022" as="sourcePoint" />
          </mxGeometry>
        </mxCell>
        <mxCell id="d0WVinOz0NllohWS_fRl-59" value="商店列表" style="whiteSpace=wrap;html=1;align=center;verticalAlign=middle;treeFolding=1;treeMoving=1;newEdgeStyle={&quot;edgeStyle&quot;:&quot;elbowEdgeStyle&quot;,&quot;startArrow&quot;:&quot;none&quot;,&quot;endArrow&quot;:&quot;none&quot;};fillColor=#e1d5e7;strokeColor=#9673a6;" vertex="1" parent="1">
          <mxGeometry x="85" y="1047" width="100" height="60" as="geometry" />
        </mxCell>
        <mxCell id="d0WVinOz0NllohWS_fRl-60" value="" style="edgeStyle=elbowEdgeStyle;elbow=vertical;sourcePerimeterSpacing=0;targetPerimeterSpacing=0;startArrow=none;endArrow=none;rounded=0;curved=0;" edge="1" target="d0WVinOz0NllohWS_fRl-59" parent="1">
          <mxGeometry relative="1" as="geometry">
            <mxPoint x="-21" y="1020" as="sourcePoint" />
            <Array as="points">
              <mxPoint x="47" y="1020" />
            </Array>
          </mxGeometry>
        </mxCell>
        <mxCell id="d0WVinOz0NllohWS_fRl-61" value="商店详情" style="whiteSpace=wrap;html=1;align=center;verticalAlign=middle;treeFolding=1;treeMoving=1;newEdgeStyle={&quot;edgeStyle&quot;:&quot;elbowEdgeStyle&quot;,&quot;startArrow&quot;:&quot;none&quot;,&quot;endArrow&quot;:&quot;none&quot;};fillColor=#f8cecc;strokeColor=#b85450;" vertex="1" parent="1">
          <mxGeometry x="-24" y="1047" width="100" height="60" as="geometry" />
        </mxCell>
        <mxCell id="d0WVinOz0NllohWS_fRl-62" value="" style="edgeStyle=elbowEdgeStyle;elbow=vertical;sourcePerimeterSpacing=0;targetPerimeterSpacing=0;startArrow=none;endArrow=none;rounded=0;curved=0;" edge="1" target="d0WVinOz0NllohWS_fRl-61" parent="1">
          <mxGeometry relative="1" as="geometry">
            <mxPoint x="26" y="1021" as="sourcePoint" />
          </mxGeometry>
        </mxCell>
        <mxCell id="d0WVinOz0NllohWS_fRl-63" value="商品详情" style="whiteSpace=wrap;html=1;align=center;verticalAlign=middle;treeFolding=1;treeMoving=1;newEdgeStyle={&quot;edgeStyle&quot;:&quot;elbowEdgeStyle&quot;,&quot;startArrow&quot;:&quot;none&quot;,&quot;endArrow&quot;:&quot;none&quot;};fillColor=#f8cecc;strokeColor=#b85450;" vertex="1" parent="1">
          <mxGeometry x="35" y="930" width="100" height="60" as="geometry" />
        </mxCell>
        <mxCell id="d0WVinOz0NllohWS_fRl-64" value="" style="edgeStyle=elbowEdgeStyle;elbow=vertical;sourcePerimeterSpacing=0;targetPerimeterSpacing=0;startArrow=none;endArrow=none;rounded=0;curved=0;" edge="1" target="d0WVinOz0NllohWS_fRl-63" parent="1">
          <mxGeometry relative="1" as="geometry">
            <mxPoint x="85" y="908" as="sourcePoint" />
          </mxGeometry>
        </mxCell>
        <mxCell id="d0WVinOz0NllohWS_fRl-65" value="订单列表" style="whiteSpace=wrap;html=1;align=center;verticalAlign=middle;treeFolding=1;treeMoving=1;newEdgeStyle={&quot;edgeStyle&quot;:&quot;elbowEdgeStyle&quot;,&quot;startArrow&quot;:&quot;none&quot;,&quot;endArrow&quot;:&quot;none&quot;};fillColor=#e1d5e7;strokeColor=#9673a6;" vertex="1" parent="1">
          <mxGeometry x="140" y="930" width="83.5" height="60" as="geometry" />
        </mxCell>
        <mxCell id="d0WVinOz0NllohWS_fRl-66" value="" style="edgeStyle=elbowEdgeStyle;elbow=vertical;sourcePerimeterSpacing=0;targetPerimeterSpacing=0;startArrow=none;endArrow=none;rounded=0;curved=0;" edge="1" target="d0WVinOz0NllohWS_fRl-65" parent="1">
          <mxGeometry relative="1" as="geometry">
            <mxPoint x="204" y="908" as="sourcePoint" />
          </mxGeometry>
        </mxCell>
        <mxCell id="d0WVinOz0NllohWS_fRl-69" value="订单详情" style="whiteSpace=wrap;html=1;align=center;verticalAlign=middle;treeFolding=1;treeMoving=1;newEdgeStyle={&quot;edgeStyle&quot;:&quot;elbowEdgeStyle&quot;,&quot;startArrow&quot;:&quot;none&quot;,&quot;endArrow&quot;:&quot;none&quot;};fillColor=#f8cecc;strokeColor=#b85450;" vertex="1" parent="1">
          <mxGeometry x="229" y="930" width="78" height="60" as="geometry" />
        </mxCell>
        <mxCell id="d0WVinOz0NllohWS_fRl-70" value="" style="edgeStyle=elbowEdgeStyle;elbow=vertical;sourcePerimeterSpacing=0;targetPerimeterSpacing=0;startArrow=none;endArrow=none;rounded=0;curved=0;" edge="1" target="d0WVinOz0NllohWS_fRl-69" parent="1">
          <mxGeometry relative="1" as="geometry">
            <mxPoint x="205" y="919" as="sourcePoint" />
            <Array as="points">
              <mxPoint x="252" y="919" />
            </Array>
          </mxGeometry>
        </mxCell>
        <mxCell id="d0WVinOz0NllohWS_fRl-71" value="创建优惠券" style="whiteSpace=wrap;html=1;align=center;verticalAlign=middle;treeFolding=1;treeMoving=1;newEdgeStyle={&quot;edgeStyle&quot;:&quot;elbowEdgeStyle&quot;,&quot;startArrow&quot;:&quot;none&quot;,&quot;endArrow&quot;:&quot;none&quot;};fillColor=#fff2cc;strokeColor=#d6b656;" vertex="1" parent="1">
          <mxGeometry x="196" y="1118" width="100" height="60" as="geometry" />
        </mxCell>
        <mxCell id="d0WVinOz0NllohWS_fRl-72" value="" style="edgeStyle=elbowEdgeStyle;elbow=vertical;sourcePerimeterSpacing=0;targetPerimeterSpacing=0;startArrow=none;endArrow=none;rounded=0;curved=0;" edge="1" target="d0WVinOz0NllohWS_fRl-71" parent="1">
          <mxGeometry relative="1" as="geometry">
            <mxPoint x="320" y="908" as="sourcePoint" />
          </mxGeometry>
        </mxCell>
        <mxCell id="d0WVinOz0NllohWS_fRl-73" value="优惠券列表" style="whiteSpace=wrap;html=1;align=center;verticalAlign=middle;treeFolding=1;treeMoving=1;newEdgeStyle={&quot;edgeStyle&quot;:&quot;elbowEdgeStyle&quot;,&quot;startArrow&quot;:&quot;none&quot;,&quot;endArrow&quot;:&quot;none&quot;};fillColor=#e1d5e7;strokeColor=#9673a6;" vertex="1" parent="1">
          <mxGeometry x="336" y="1118" width="100" height="60" as="geometry" />
        </mxCell>
        <mxCell id="d0WVinOz0NllohWS_fRl-74" value="" style="edgeStyle=elbowEdgeStyle;elbow=vertical;sourcePerimeterSpacing=0;targetPerimeterSpacing=0;startArrow=none;endArrow=none;rounded=0;curved=0;entryX=0.5;entryY=0;entryDx=0;entryDy=0;" edge="1" target="d0WVinOz0NllohWS_fRl-73" parent="1">
          <mxGeometry relative="1" as="geometry">
            <mxPoint x="319" y="1015" as="sourcePoint" />
            <mxPoint x="389" y="1136" as="targetPoint" />
            <Array as="points">
              <mxPoint x="366" y="1015" />
            </Array>
          </mxGeometry>
        </mxCell>
      </root>
    </mxGraphModel>
  </diagram>
</mxfile>
